HIERARCHY
ROOT Hips
{
    OFFSET   0.000000   0.000000   0.000000
    CHANNELS 6 Xposition Yposition Zposition Xrotation Yrotation Zrotation
    JOINT LeftUpLeg
    {
        OFFSET   0.078795   0.000000   0.000000
        CHANNELS 3 Xrotation Yrotation Zrotation
        JOINT LeftLeg
        {
            OFFSET   0.000000  -0.427566   0.000000
            CHANNELS 3 Xrotation Yrotation Zrotation
            JOINT LeftFoot
            {
                OFFSET   0.000000  -0.394685   0.000000
                CHANNELS 3 Xrotation Yrotation Zrotation
                JOINT LeftToeBase
                {
                    OFFSET   0.000000  -0.039971   0.149173
                    CHANNELS 3 Xrotation Yrotation Zrotation
                }
            }
        }
    }
    JOINT RightUpLeg
    {
        OFFSET  -0.078795   0.000000   0.000000
        CHANNELS 3 Xrotation Yrotation Zrotation
        JOINT RightLeg
        {
            OFFSET   0.000000  -0.427566   0.000000
            CHANNELS 3 Xrotation Yrotation Zrotation
            JOINT RightFoot
            {
                OFFSET   0.000000  -0.394685   0.000000
                CHANNELS 3 Xrotation Yrotation Zrotation
                JOINT RightToeBase
                {
                    OFFSET   0.000000  -0.039971   0.149173
                    CHANNELS 3 Xrotation Yrotation Zrotation
                }
            }
        }
    }
    JOINT Spine
    {
        OFFSET   0.000000   0.001000   0.000000
        CHANNELS 3 Xrotation Yrotation Zrotation
        JOINT Spine1
        {
            OFFSET   0.000000   0.211086   0.000000
            CHANNELS 3 Xrotation Yrotation Zrotation
            JOINT Neck
            {
                OFFSET   0.000000   0.158868   0.000000
                CHANNELS 3 Xrotation Yrotation Zrotation
            }
            JOINT LeftShoulder
            {
                OFFSET   0.000000   0.158868   0.000000
                CHANNELS 3 Xrotation Yrotation Zrotation
                JOINT LeftArm
                {
                    OFFSET   0.189194  -0.000001   0.000000
                    CHANNELS 3 Xrotation Yrotation Zrotation
                    JOINT LeftForeArm
                    {
                        OFFSET   0.272680  -0.000001   0.000000
                        CHANNELS 3 Xrotation Yrotation Zrotation
                        JOINT LeftHand
                        {
                            OFFSET   0.258023  -0.000001   0.000000
                            CHANNELS 3 Xrotation Yrotation Zrotation
                        }
                    }
                }
            }
            JOINT RightShoulder
            {
                OFFSET   0.000000   0.158868   0.000000
                CHANNELS 3 Xrotation Yrotation Zrotation
                JOINT RightArm
                {
                    OFFSET  -0.189194  -0.000001   0.000000
                    CHANNELS 3 Xrotation Yrotation Zrotation
                    JOINT RightForeArm
                    {
                        OFFSET  -0.272680  -0.000001   0.000000
                        CHANNELS 3 Xrotation Yrotation Zrotation
                        JOINT RightHand
                        {
                            OFFSET  -0.258023  -0.000001   0.000000
                            CHANNELS 3 Xrotation Yrotation Zrotation
                        }
                    }
                }
            }
        }
    }
}
MOTION
Frames: 8
Frame Time:   0.016667
 -0.817807   0.874325   3.165089 -177.476104  33.005583 167.501739 -10.627738   0.582507   2.975712  71.181027 -13.503536   8.231583  12.379562 -11.024295  -9.042854   0.000000   0.000000   0.000000 -19.300414  -5.897078   2.425591  24.352591   2.628230  -3.427200  -0.568027   0.223185  12.968971   0.000000   0.000000   0.000000   2.164029  -0.140070   2.110670   8.623984  -0.300271   8.509022  15.307332  27.613326 -12.627876   0.108399  -0.801748 -18.004877  13.835344 -39.736188 -50.568579   1.176136 -34.181397  11.689253   5.493189  -0.289537   1.871098  -1.187120   4.178180  17.095597  23.877579  25.141165  45.475405  -0.387843  12.909287  -1.539393  -1.412872   1.242205   0.234591
 -0.806106   0.878434   3.155662 -178.255201  29.753942 168.140267 -14.866707   0.240195   2.754651  73.044444 -11.562515   7.875940   8.441012  -9.595978  -8.641043   0.000000   0.000000   0.000000 -17.733825  -7.356662   2.264788  23.879278   1.597893  -4.039974  -1.317372  -0.640445  13.108666   0.000000   0.000000   0.000000   2.086505  -0.077726   2.090722   8.299831  -0.072425   8.421128  15.035774  26.936872 -12.492962   0.098596  -0.977144 -17.984547  13.809927 -40.919087 -50.321754   1.030666 -31.815873  11.116876   3.775648   0.157041   2.478268  -1.188941   4.267738  17.068238  25.219375  26.780704  45.075160  -0.382901  12.870376  -1.576304  -0.795732   0.646932   2.744205
 -0.794794   0.882347   3.146109 -178.997708  26.589293 168.692313 -19.106569   0.201665   2.456994  74.321982  -9.583197   7.423750   4.459797  -8.158837  -7.821528   0.000000   0.000000   0.000000 -16.202092  -8.948015   2.195628  23.333259   0.680344  -4.677629  -1.960909  -1.430711  13.266964   0.000000   0.000000   0.000000   2.002753   0.003062   2.072900   7.946761   0.227970   8.340984  14.753471  26.326098 -12.386903   0.091636  -1.103396 -17.960430  13.907042 -41.956068 -49.962864   0.922343 -29.739426  10.459021   2.254803   0.615620   2.884547  -1.187627   4.303897  17.035955  26.542259  28.257078  44.618233  -0.386154  13.108773  -1.690949   0.085494   0.136723   5.099300
 -0.784175   0.885338   3.135915 -179.589918  23.789800 168.948094 -23.066798   1.084640   2.293002  74.163185  -8.084809   6.931766   2.033528  -7.108632  -7.024540   0.000000   0.000000   0.000000 -14.665708 -10.445422   2.355790  22.735922  -0.098329  -5.094201  -2.442469  -2.087983  13.423548   0.000000   0.000000   0.000000   1.938754   0.143006   2.087546   7.657766   0.771545   8.387737  14.432140  25.954503 -12.398545   0.094502  -1.057295 -17.930688  14.201149 -42.477529 -49.404874   0.844540 -28.497216   9.588310   1.551224   1.039856   2.528828  -1.180763   4.295935  16.969698  27.486478  29.033944  44.212345  -0.409480  13.999075  -1.956589   1.491976  -0.125016   6.422569
 -0.773682   0.888162   3.125603 179.859772  21.057938 169.125547 -26.975936   2.139463   2.219872  73.754902  -6.669581   6.447916  -0.118209  -6.150202  -6.209447   0.000000   0.000000   0.000000 -13.116950 -11.920396   2.591309  22.125735  -0.848722  -5.477169  -2.893361  -2.722094  13.576273   0.000000   0.000000   0.000000   1.878275   0.293693   2.108214   7.379620   1.358995   8.459938  14.104068  25.626617 -12.433198   0.099092  -0.979848 -17.899966  14.537520 -42.902876 -48.804642   0.787827 -27.405594   8.686762   0.999312   1.463454   2.037102  -1.172900   4.279922  16.897254  28.368659  29.679844  43.807481  -0.431687  15.008041  -2.250436   2.995638  -0.318016   7.562715
 -0.763415   0.889988   3.113534 179.647213  18.660368 168.907918 -29.896709   3.882309   2.356629  71.575666  -6.941780   5.981773  -1.639901  -6.245375  -5.913859   0.000000   0.000000   0.000000 -11.131550 -13.591873   3.077102  21.315184  -1.238740  -5.616257  -3.257500  -3.081756  13.731932   0.000000   0.000000   0.000000   1.879686   0.457813   2.181599   7.341132   2.018098   8.742890  13.803837  25.632151 -12.643630   0.111489  -0.761305 -17.850108  15.007989 -42.677618 -48.181634   0.754592 -27.072622   7.942142   1.423903   1.721656   0.558623  -1.165552   4.335640  16.796466  28.572860  29.437785  43.488436  -0.477656  16.270617  -2.475095   4.209326  -0.189321   6.797666
 -0.753134   0.891616   3.101181 179.449571  16.275135 168.653004 -32.710360   5.639290   2.574539  69.208003  -7.352660   5.518835  -2.983036  -6.438439  -5.701215   0.000000   0.000000   0.000000  -9.070610 -15.344551   3.640519  20.494366  -1.556145  -5.754247  -3.627488  -3.395987  13.893308   0.000000   0.000000   0.000000   1.882283   0.615423   2.258777   7.306265   2.651644   9.041926  13.522068  25.669958 -12.864944   0.123192  -0.551192 -17.796552  15.528016 -42.393261 -47.544495   0.729018 -26.793854   7.249686   1.886236   1.959192  -0.955043  -1.158962   4.386814  16.706367  28.750929  29.158875  43.143355  -0.518886  17.494850  -2.690543   5.272636  -0.027070   5.852683
 -0.742784   0.892146   3.087274 179.356702  13.944016 168.226662 -34.885459   7.514741   2.826477  65.810231  -8.602283   5.082970  -3.345302  -7.129554  -5.934353   0.000000   0.000000   0.000000  -6.710359 -17.615719   4.371080  19.622531  -1.483245  -5.856940  -4.033944  -3.455824  14.096883   0.000000   0.000000   0.000000   1.892414   0.737184   2.356880   7.306250   3.145497   9.426911  13.342321  25.880592 -13.145291   0.132010  -0.387513 -17.722256  16.336492 -41.798706 -46.816089   0.720729 -26.816617   6.832635   2.528247   2.127489  -2.653347  -1.157094   4.413155  16.675196  28.791408  28.681529  42.648564  -0.557222  18.507319  -2.853338   5.508698   0.398262   3.928736
